<?xml version="1.0" encoding="UTF-8"?><svg xmlns="http://www.w3.org/2000/svg" viewBox="0 0 319.2 319.2"><defs><style>.cls-1{stroke:#0090aa;stroke-width:19.2px;}.cls-1,.cls-2{fill:#fff;}.cls-1,.cls-3{stroke-miterlimit:10;}.cls-4,.cls-3{fill:#0090aa;}.cls-3{stroke:#fff;stroke-width:17.45px;}</style></defs><g id="_ゴ下"><circle class="cls-1" cx="159.6" cy="159.6" r="150"/></g><g id="_ゴ1"><circle class="cls-3" cx="159.6" cy="159.6" r="136.36"/><path class="cls-2" d="M277.84,118.73c-1.22-7.68-5.11-14.34-10.6-18.77-5.46-4.46-12.31-6.72-19.2-6.71-3.18,0-6.38,.49-9.48,1.45-5.75-19.45-35.75-29.19-85.98-29.19-57.66,0-88.68,12.82-86.93,38.47,.86,12.59,5.3,37.27,17.25,59.94-5.13,1.81-9.97,4.07-14.34,6.81-5.2,3.28-9.76,7.21-13.32,11.83-3.55,4.61-6.08,9.98-6.91,15.85-.16,1.13-.25,2.28-.25,3.41,0,3.55,.79,7.07,2.22,10.38,2.52,5.8,6.88,10.99,12.67,15.6,8.71,6.9,20.73,12.59,35.96,16.67,15.23,4.08,33.67,6.49,55.22,6.49,32.69-.02,58.31-5.56,76.38-14.1,9.03-4.29,16.21-9.33,21.38-15.12,2.58-2.9,4.65-6,6.1-9.31,1.45-3.3,2.25-6.82,2.25-10.37,0-.78-.04-1.56-.12-2.33-.59-6.01-2.99-11.57-6.48-16.33-5.25-7.16-12.88-12.75-21.66-16.83-2.96-1.37-6.07-2.54-9.27-3.55,.54-1.04,1.07-2.07,1.57-3.11,4.51,1.71,9.16,2.55,13.66,2.54,5.53,0,10.82-1.2,15.58-3.25,7.15-3.08,13.16-8,17.55-14.06,4.36-6.05,7.15-13.36,7.16-21.22,0-1.72-.14-3.46-.42-5.2Zm-125.26-35.28c34.26,0,62.03,6.89,62.03,15.39s-27.77,15.38-62.03,15.38-62.03-6.89-62.03-15.38c0-8.49,27.77-15.39,62.03-15.39Zm79.1,100.54c3.91,2.53,7.05,5.42,9.19,8.36,2.15,2.97,3.33,5.91,3.62,8.88,.03,.28,.04,.56,.04,.84,0,1.3-.28,2.71-.98,4.31-1.21,2.8-3.82,6.18-8.14,9.56-6.46,5.09-16.65,10.1-30.29,13.72-13.64,3.63-30.72,5.92-50.96,5.92-30.99,.02-54.48-5.37-69.59-12.62-7.56-3.6-12.99-7.66-16.29-11.44-1.66-1.88-2.79-3.68-3.48-5.3-.7-1.63-.98-3.07-.99-4.4,0-.43,.03-.85,.09-1.27,.43-2.95,1.7-5.86,3.92-8.75,3.3-4.32,8.78-8.46,15.58-11.51,2.44-1.1,5.08-2.01,7.8-2.82,2.92,4.09,6.13,8.02,9.7,11.64,3.62,3.67,7.01,6.61,10.32,9.02-3.41,1.96-5.38,4.15-5.38,6.48,0,8.14,23.47,14.74,52.42,14.74s52.42-6.6,52.42-14.74c0-3.68-4.81-7.03-12.72-9.61,2.04-1.73,4.13-3.68,6.31-5.88,3.8-3.85,7.18-8.04,10.24-12.4,6.45,1.64,12.38,4.17,17.17,7.29Zm24.13-53.79c-1.47,3.19-4.12,6.27-7.34,8.41-3.23,2.16-6.89,3.35-10.5,3.34-1.95-.01-3.94-.37-6.01-1.15,2.37-7.26,4.1-14.24,5.31-20.44,1.47-2.26,3.12-3.81,4.78-4.83,2.01-1.24,4.09-1.76,6-1.76,2.26,0,4.24,.72,5.77,1.96,1.51,1.27,2.76,3.04,3.32,6.25,.1,.65,.15,1.3,.15,1.96,0,2.01-.48,4.14-1.48,6.27Z"/></g><g id="_ゴ文字"><path class="cls-4" d="M133.86,135.78h12.45v19.02l22.45-19.02h9.62l-25.32,21.4,32.07,29.16h-15.03l-23.79-21.66v21.66h-12.45v-50.56Z"/></g></svg>