<svg xmlns="http://www.w3.org/2000/svg" viewBox="0 0 657.9 187.2"><defs><style>.cls-1{fill:#0090aa;stroke-width:6.4px;}.cls-1,.cls-3{stroke:#fff;}.cls-1,.cls-3,.cls-4{stroke-miterlimit:10;}.cls-2{fill:#fff;}.cls-3,.cls-4{fill:none;}.cls-3{stroke-width:6px;}.cls-4{stroke:#0090aa;stroke-width:7.2px;}.cls-5{fill:#00c8dd;}</style></defs><g id="ロゴ1"><circle class="cls-1" cx="93.6" cy="93.6" r="80"/><path class="cls-2" d="M137,78.62A10.88,10.88,0,0,0,126,69.27a11.85,11.85,0,0,0-3.48.53C120.44,62.67,109.44,59.1,91,59.1c-21.14,0-32.52,4.7-31.88,14.1a59.7,59.7,0,0,0,6.33,22,26,26,0,0,0-5.26,2.5A18.39,18.39,0,0,0,55.34,102a12.49,12.49,0,0,0-2.54,5.81,8.66,8.66,0,0,0-.09,1.25,9.56,9.56,0,0,0,.82,3.81,15.13,15.13,0,0,0,4.64,5.71,36.48,36.48,0,0,0,13.19,6.12,79,79,0,0,0,20.25,2.38c12,0,21.38-2,28-5.17a24.35,24.35,0,0,0,7.84-5.54,12.93,12.93,0,0,0,2.24-3.42,9.48,9.48,0,0,0,.82-3.8,8.06,8.06,0,0,0,0-.85,12.21,12.21,0,0,0-2.38-6,20.16,20.16,0,0,0-7.94-6.17,28.13,28.13,0,0,0-3.4-1.3c.2-.38.39-.76.58-1.14a14.31,14.31,0,0,0,5,.93,14.51,14.51,0,0,0,5.71-1.19,15.59,15.59,0,0,0,6.44-5.16,13.4,13.4,0,0,0,2.62-7.78A11.08,11.08,0,0,0,137,78.62ZM91,65.68c12.56,0,22.74,2.53,22.74,5.64S103.59,77,91,77s-22.75-2.52-22.75-5.64S78.47,65.68,91,65.68Zm29,36.86a12.84,12.84,0,0,1,3.37,3.07,6.59,6.59,0,0,1,1.33,3.25c0,.11,0,.21,0,.31a4,4,0,0,1-.36,1.58,9.62,9.62,0,0,1-3,3.51,31.19,31.19,0,0,1-11.11,5,73.37,73.37,0,0,1-18.68,2.17c-11.37,0-20-2-25.52-4.63a18.64,18.64,0,0,1-6-4.19,7.32,7.32,0,0,1-1.28-1.94,4,4,0,0,1-.36-1.62,3.71,3.71,0,0,1,0-.47,6.92,6.92,0,0,1,1.44-3.2,14.89,14.89,0,0,1,5.71-4.23,24.74,24.74,0,0,1,2.86-1,35.19,35.19,0,0,0,3.56,4.27,31.46,31.46,0,0,0,3.78,3.31c-1.25.71-2,1.52-2,2.37,0,3,8.6,5.41,19.22,5.41s19.22-2.42,19.22-5.41c0-1.35-1.77-2.58-4.66-3.52.74-.64,1.51-1.35,2.31-2.16a35.26,35.26,0,0,0,3.75-4.55A21.33,21.33,0,0,1,120,102.54Zm8.85-19.72a7.68,7.68,0,0,1-2.69,3.08,7,7,0,0,1-3.85,1.23,6.37,6.37,0,0,1-2.21-.43,62.74,62.74,0,0,0,2-7.49,5.57,5.57,0,0,1,1.75-1.77,4.15,4.15,0,0,1,2.2-.65,3.29,3.29,0,0,1,2.12.72,3.55,3.55,0,0,1,1.21,2.29,4.37,4.37,0,0,1,.06.72A5.51,5.51,0,0,1,128.88,82.82Z"/><circle class="cls-3" cx="93.6" cy="93.6" r="50"/><circle class="cls-4" cx="93.6" cy="93.6" r="90"/></g><g id="ロゴ2"><circle class="cls-5" cx="28.85" cy="95.1" r="8"/><circle class="cls-5" cx="158.85" cy="95.1" r="8"/></g><g id="ロゴ文字"><path class="cls-2" d="M26.1,70l1.13-2.62L33.46,70l-2.68-10.9.74-1.71,2.54,10.35,12.4-6.39L45,64.73l-10.87,5.6,7.13,3.08L40.14,76Z"/><path class="cls-2" d="M39.14,46.9l17,4.23-1.91,2.2-5.55-1.4-4.79,5.51L46,62.81l-1,1.08L38.67,47.44Zm4.38,9.51,4.12-4.73L41,50Z"/><path class="cls-2" d="M47.74,38.36l2.5-1.52L62,43.43l.12-.07L61.56,30,64,28.47,72,41.54,69.5,43,63,32.32l-.08,0,.55,14.33L63,47,50.47,40l-.16.1,6.45,10.63-1.08.66Z"/><path class="cls-2" d="M69.66,26.84l2.71-.91,4.88,14.49-2.71.91Z"/><path class="cls-2" d="M88.15,38.49a10.34,10.34,0,0,1-3.74-.2,9.56,9.56,0,0,1-3.15-1.38A8.12,8.12,0,0,1,79,34.58a7,7,0,0,1-1-5.17,7,7,0,0,1,.7-2A8.07,8.07,0,0,1,80,25.67a9.44,9.44,0,0,1,1.74-1.45,10.38,10.38,0,0,1,2.14-1,11.43,11.43,0,0,1,5-.58,10.75,10.75,0,0,1,2.32.53,9.09,9.09,0,0,1,2,1,8.28,8.28,0,0,1,1.63,1.42A6.91,6.91,0,0,1,96,27.32a6.57,6.57,0,0,1,.57,2.06,6.8,6.8,0,0,1-.08,2.16,7.29,7.29,0,0,1-.7,2,9.13,9.13,0,0,1-1.26,1.8,9.47,9.47,0,0,1-1.73,1.47,10.3,10.3,0,0,1-2.15,1.08A10.86,10.86,0,0,1,88.15,38.49Zm-.09-.75a5.75,5.75,0,0,0,2.5-.84,5.46,5.46,0,0,0,1.71-1.74,6.76,6.76,0,0,0,.88-2.44,11.06,11.06,0,0,0-.67-5.78,6.55,6.55,0,0,0-1.41-2.12,5.35,5.35,0,0,0-2-1.25,6.11,6.11,0,0,0-2.63-.22,6,6,0,0,0-2.53.82,5.15,5.15,0,0,0-1.7,1.68,6.33,6.33,0,0,0-.88,2.39,10.1,10.1,0,0,0,0,2.92A10.34,10.34,0,0,0,82,34a6.79,6.79,0,0,0,1.41,2.17,5.24,5.24,0,0,0,2,1.3A5.93,5.93,0,0,0,88.06,37.74Z"/><path class="cls-2" d="M112.63,32.28a7.2,7.2,0,0,0-.51,2.88,6.14,6.14,0,0,0,.62,2.54,6.34,6.34,0,0,0,1.61,2,8,8,0,0,0,2.44,1.42,4.87,4.87,0,0,0,1.73.32,6.67,6.67,0,0,0,1.73-.22,7.24,7.24,0,0,0,1.59-.6,6.78,6.78,0,0,0,1.31-.87l.89,1.07a9.49,9.49,0,0,1-1.69,1,8.31,8.31,0,0,1-2,.59,8.73,8.73,0,0,1-2.3.06,9.56,9.56,0,0,1-2.59-.63,11.18,11.18,0,0,1-3.37-2,9.4,9.4,0,0,1-2.16-2.65,7.5,7.5,0,0,1-.88-3,7.33,7.33,0,0,1,1.47-5A7.3,7.3,0,0,1,112,27.77a8.34,8.34,0,0,1,1.91-1,9,9,0,0,1,2.23-.53,10.71,10.71,0,0,1,2.46,0,11.94,11.94,0,0,1,2.61.67,8.93,8.93,0,0,1,2.23,1.2,9.08,9.08,0,0,1,1.65,1.55,8.6,8.6,0,0,1,1.13,1.76,10.12,10.12,0,0,1,.66,1.83l-1.43.26a7.71,7.71,0,0,0-1.27-3.39,5.45,5.45,0,0,0-2.54-1.87,7.69,7.69,0,0,0-2.75-.52,6.74,6.74,0,0,0-2.58.5,6.33,6.33,0,0,0-2.18,1.52A7.33,7.33,0,0,0,112.63,32.28Z"/><path class="cls-2" d="M130,50.21a2.58,2.58,0,0,1-.29-1.05,1.45,1.45,0,0,1,.3-1q-.56,0-1.11,0a6.24,6.24,0,0,1-1.13-.1,5.64,5.64,0,0,1-1.19-.34,6.23,6.23,0,0,1-1.28-.75,4.22,4.22,0,0,1-1-1,3.1,3.1,0,0,1-.46-1.13,2.79,2.79,0,0,1,0-1.15,2.73,2.73,0,0,1,.52-1.07,2.81,2.81,0,0,1,1.09-.89,3.72,3.72,0,0,1,1.39-.31,6.82,6.82,0,0,1,1.59.13,17.65,17.65,0,0,1,1.72.46c.58.2,1.16.42,1.74.67s1.15.5,1.69.75l.45-.59a7,7,0,0,0,.72-1.16,2.28,2.28,0,0,0,.22-1,1.45,1.45,0,0,0-.25-.8,3.17,3.17,0,0,0-.71-.71,2.42,2.42,0,0,0-.92-.46,2.67,2.67,0,0,0-1-.07,2.81,2.81,0,0,0-.93.26,3.43,3.43,0,0,0-.8.57L128.57,38a2.7,2.7,0,0,1,1.28-.73,4,4,0,0,1,1.58-.07,6,6,0,0,1,1.7.5,8.64,8.64,0,0,1,1.67,1,8.87,8.87,0,0,1,1.58,1.48,3.8,3.8,0,0,1,.74,1.35,2.37,2.37,0,0,1,0,1.24,3.78,3.78,0,0,1-.6,1.16l-4.41,5.8a1.56,1.56,0,0,0-.3,1,2.44,2.44,0,0,0,.3,1ZM133.21,44c-.37-.14-.75-.28-1.15-.41s-.82-.24-1.23-.34-.81-.17-1.21-.22a5.46,5.46,0,0,0-1.13,0,3,3,0,0,0-.94.2,1.37,1.37,0,0,0-.66.49,1.88,1.88,0,0,0-.36.77,2.26,2.26,0,0,0,0,.82,2.12,2.12,0,0,0,.26.78,2,2,0,0,0,.53.62,3.83,3.83,0,0,0,.73.42,5,5,0,0,0,.78.24q.4.07.84.12c.29,0,.59.05.91.06Z"/><path class="cls-2" d="M148.94,45.53a1.48,1.48,0,0,0-.67-.44,1.8,1.8,0,0,0-.8-.09,2.28,2.28,0,0,0-.82.22,2.77,2.77,0,0,0-.74.48l-2.07,1.86,2.34,2.6-.74.67-2.34-2.6-8,7.22-1.75-1.94,8-7.23-1.83-2,.75-.67,1.82,2,1-.91a4.23,4.23,0,0,1,1.6-.92,4.61,4.61,0,0,1,1.8-.21,5,5,0,0,1,3.33,1.65,5.52,5.52,0,0,1,.77,1.11,5.17,5.17,0,0,1,.47,1.19,4.21,4.21,0,0,1,.11,1.22,3.44,3.44,0,0,1-.26,1.15l-2.18-.58c.16-.28.32-.57.47-.88a3.51,3.51,0,0,0,.31-.93,2.32,2.32,0,0,0,0-1A2.38,2.38,0,0,0,148.94,45.53Z"/><path class="cls-2" d="M140.43,63.35a6.94,6.94,0,0,1-.91-2.38,6.57,6.57,0,0,1,0-2.38,5.82,5.82,0,0,1,.84-2.12A5.06,5.06,0,0,1,142,54.89a7.22,7.22,0,0,1,2.49-1,6.11,6.11,0,0,1,2.45,0,6,6,0,0,1,2.23,1A6.87,6.87,0,0,1,151,57a6.31,6.31,0,0,1,.87,2.23,5.82,5.82,0,0,1,0,2.16,4.82,4.82,0,0,1-.73,1.85,4.34,4.34,0,0,1-1.39,1.34l-5.06-8.38A7.3,7.3,0,0,0,143,57.64a5.44,5.44,0,0,0-1,1.73,4.32,4.32,0,0,0-.23,1.85,4.09,4.09,0,0,0,.6,1.8,5.2,5.2,0,0,0,1.06,1.27,5.85,5.85,0,0,0,1.29.87,4.47,4.47,0,0,0,1.35.45,3.22,3.22,0,0,0,1.24,0l.13.8a5.17,5.17,0,0,1-1.93.1,6.75,6.75,0,0,1-2-.54,7.54,7.54,0,0,1-1.75-1.07A6.28,6.28,0,0,1,140.43,63.35Zm8.41-2.05a3,3,0,0,0,.93-.87,3,3,0,0,0,.48-1.14,3.33,3.33,0,0,0,0-1.26,3.65,3.65,0,0,0-.47-1.26,3,3,0,0,0-.79-.84,2.91,2.91,0,0,0-1.06-.48,3.52,3.52,0,0,0-1.22-.09,3.71,3.71,0,0,0-1.23.37Z"/><path class="cls-2" d="M33,132.59a4.42,4.42,0,0,0,.78.84,3.35,3.35,0,0,0,1,.56,2.61,2.61,0,0,0,1,.15,2.17,2.17,0,0,0,1-.38,2.26,2.26,0,0,0,.83-1,4.22,4.22,0,0,0,.28-1.37,9.05,9.05,0,0,0-.07-1.62c-.06-.58-.14-1.16-.22-1.75s-.14-1.19-.19-1.78a8,8,0,0,1,0-1.7,4.78,4.78,0,0,1,.47-1.5A3.33,3.33,0,0,1,39,121.79a4,4,0,0,1,1.54-.67,3.64,3.64,0,0,1,1.64,0,4.66,4.66,0,0,1,1.63.8,6.78,6.78,0,0,1,1.5,1.59,7.47,7.47,0,0,1,.93,1.75,4.66,4.66,0,0,1,.31,1.64,4.35,4.35,0,0,1-.28,1.56,5.93,5.93,0,0,1-.85,1.49l-1.26-.74a6.93,6.93,0,0,0,.73-1.24,4.38,4.38,0,0,0,.33-1.29,3.58,3.58,0,0,0-.14-1.33,4.59,4.59,0,0,0-.66-1.36,4.09,4.09,0,0,0-.91-.94,2.79,2.79,0,0,0-1-.44,2.09,2.09,0,0,0-.93,0,2.19,2.19,0,0,0-.8.33,1.86,1.86,0,0,0-.7,1,4.42,4.42,0,0,0-.22,1.37A12.27,12.27,0,0,0,40,127c.08.59.15,1.19.23,1.81s.13,1.22.18,1.84a10,10,0,0,1,0,1.74,5,5,0,0,1-.43,1.52A3,3,0,0,1,39,135a4.29,4.29,0,0,1-1.63.71,3.88,3.88,0,0,1-1.76-.05,5.08,5.08,0,0,1-1.79-.89A7.61,7.61,0,0,1,32.09,133a7.38,7.38,0,0,1-.94-1.79,5.34,5.34,0,0,1-.31-1.68,4.65,4.65,0,0,1,.28-1.6,5.75,5.75,0,0,1,.81-1.52l1.27.81a4.79,4.79,0,0,0-.73,1.32,4.46,4.46,0,0,0-.28,1.37,4,4,0,0,0,.18,1.37A4.42,4.42,0,0,0,33,132.59Z"/><path class="cls-2" d="M48,133.75l1.66.71.49.49-8.7,8.59-1.66-1.69Zm3.46-3.68a1.27,1.27,0,0,1,.45-.3,1.34,1.34,0,0,1,.52-.1,1.26,1.26,0,0,1,.51.11,1.11,1.11,0,0,1,.45.3,1.2,1.2,0,0,1,.29.45,1.29,1.29,0,0,1,.1.51,1.45,1.45,0,0,1-.1.51,1.25,1.25,0,0,1-.31.45,1.43,1.43,0,0,1-.44.3,1.54,1.54,0,0,1-.52.09,1.25,1.25,0,0,1-.51-.1,1.37,1.37,0,0,1-.45-.3,1.38,1.38,0,0,1-.29-.45,1.34,1.34,0,0,1-.1-.52,1.54,1.54,0,0,1,.1-.51A1.43,1.43,0,0,1,51.48,130.07Z"/><path class="cls-2" d="M54.91,139.24l.55.39-1.41,2a7.91,7.91,0,0,1,2.9-.17,5.14,5.14,0,0,1,2.29.89,2.62,2.62,0,0,1,.8.92,3.08,3.08,0,0,1,.32,1.18,3.71,3.71,0,0,1-.14,1.31,4.29,4.29,0,0,1-.63,1.29l-5,7-1.94-1.38L57.41,146a3.59,3.59,0,0,0,.5-.94,2.1,2.1,0,0,0,.11-.84,1.64,1.64,0,0,0-.22-.73,1.79,1.79,0,0,0-.53-.57,2.62,2.62,0,0,0-.73-.36,4.09,4.09,0,0,0-.9-.21,6.85,6.85,0,0,0-1-.07,10.22,10.22,0,0,0-1.09.09l-5.16,7.23-2-1.39,6.72-9.4Z"/><path class="cls-2" d="M71.66,152.61a6.61,6.61,0,0,0,0-1,3.55,3.55,0,0,0-.2-1,2.69,2.69,0,0,0-.51-.9,2.35,2.35,0,0,0-.92-.65,3.16,3.16,0,0,0-2.82.16,4.25,4.25,0,0,0-1.13,1,5.31,5.31,0,0,0-.82,1.39,7.81,7.81,0,0,0-.55,2.12,6.13,6.13,0,0,0,.1,2,4.24,4.24,0,0,0,.75,1.64A3.33,3.33,0,0,0,67,158.35a3.57,3.57,0,0,0,1.43.3,3.49,3.49,0,0,0,1.26-.25,4.52,4.52,0,0,0,1.11-.66,11.25,11.25,0,0,0,1-.93l.55.54a8.61,8.61,0,0,1-1.52,1.55,5.93,5.93,0,0,1-1.7.93,4.63,4.63,0,0,1-1.81.27,5.59,5.59,0,0,1-3.74-1.69,5.56,5.56,0,0,1-1.18-1.85,6.23,6.23,0,0,1-.4-2.21,6.06,6.06,0,0,1,.47-2.3,6.62,6.62,0,0,1,2-2.74,6.46,6.46,0,0,1,1.4-.85,6.1,6.1,0,0,1,1.56-.47,5.84,5.84,0,0,1,1.62-.05,5.45,5.45,0,0,1,1.61.41A5.68,5.68,0,0,1,72,149a5.32,5.32,0,0,1,.94.89,4,4,0,0,1,.62,1.05,3.32,3.32,0,0,1,.23,1.15Z"/><path class="cls-2" d="M82.11,164.29a5.71,5.71,0,0,1-2.19-.8A5.87,5.87,0,0,1,78.26,162a5.63,5.63,0,0,1-1-2,5.55,5.55,0,0,1-.12-2.3,8.34,8.34,0,0,1,.83-2.57,6.36,6.36,0,0,1,1.5-1.91,5.63,5.63,0,0,1,2-1.09A5.8,5.8,0,0,1,84,152a5.62,5.62,0,0,1,2.07.74,5.46,5.46,0,0,1,1.5,1.36,4.85,4.85,0,0,1,.84,1.76,4.76,4.76,0,0,1,.1,2L79.7,156.4a7.82,7.82,0,0,0,0,2.26,5.57,5.57,0,0,0,.59,1.9,4.09,4.09,0,0,0,1.14,1.36,3.52,3.52,0,0,0,1.61.68,4.5,4.5,0,0,0,1.51,0,5.46,5.46,0,0,0,1.38-.46,4.54,4.54,0,0,0,1.13-.78,3.1,3.1,0,0,0,.73-1l.64.41a5.85,5.85,0,0,1-1.09,1.59,6.82,6.82,0,0,1-1.54,1.19,6.57,6.57,0,0,1-1.8.69A4.87,4.87,0,0,1,82.11,164.29Zm3.62-7.93a3.23,3.23,0,0,0,0-1.28,3.29,3.29,0,0,0-.5-1.11,3.07,3.07,0,0,0-.87-.81,3,3,0,0,0-1.15-.43,2.38,2.38,0,0,0-1.06.08,2.8,2.8,0,0,0-1,.53,3.65,3.65,0,0,0-.79.9,4,4,0,0,0-.49,1.2Z"/><path class="cls-2" d="M99.55,164.79l-.07-.4c.94-1.27,1.76-2.39,2.45-3.36s1.27-1.81,1.74-2.54.85-1.37,1.13-1.9a10,10,0,0,0,.62-1.43,4.71,4.71,0,0,0,.23-1.1,3.88,3.88,0,0,0-.06-1,4.29,4.29,0,0,0-.44-1.29,3.45,3.45,0,0,0-.83-1,3,3,0,0,0-1.17-.6,3.3,3.3,0,0,0-1.51,0,3.81,3.81,0,0,0-1.21.43,4.22,4.22,0,0,0-1,.79,3.72,3.72,0,0,0-.69,1,2.57,2.57,0,0,0-.26,1.14l-.44.08a4.63,4.63,0,0,1,.19-1.85,5.17,5.17,0,0,1,2.2-2.88,4.52,4.52,0,0,1,1.73-.67,6,6,0,0,1,2.14,0,4.66,4.66,0,0,1,1.66.66,3.84,3.84,0,0,1,1.15,1.19,4.46,4.46,0,0,1,.59,1.56,4.87,4.87,0,0,1,0,1.21,6.8,6.8,0,0,1-.32,1.34,10.37,10.37,0,0,1-.71,1.56c-.3.56-.67,1.18-1.12,1.86s-1,1.43-1.56,2.26-1.26,1.74-2,2.75l8.18-1.42-.83,1.94Z"/><path class="cls-2" d="M120.87,159.49a4.67,4.67,0,0,1-2.4.37,5.66,5.66,0,0,1-2.34-.84,8.36,8.36,0,0,1-2.09-1.93,12.93,12.93,0,0,1-1.69-2.88,11.52,11.52,0,0,1-.85-3,8.26,8.26,0,0,1,.06-2.82,5.8,5.8,0,0,1,1-2.3,4.69,4.69,0,0,1,4.32-1.86,5.88,5.88,0,0,1,2.34.88,8.55,8.55,0,0,1,2.09,1.89,11.6,11.6,0,0,1,1.6,2.7,12.38,12.38,0,0,1,.93,3.2,8.45,8.45,0,0,1,0,2.85,5.8,5.8,0,0,1-1,2.28A4.65,4.65,0,0,1,120.87,159.49Zm-.3-.71a1.85,1.85,0,0,0,1-1.1,4.63,4.63,0,0,0,.24-1.89,11.31,11.31,0,0,0-.4-2.41,20.85,20.85,0,0,0-.94-2.67,19.35,19.35,0,0,0-1.28-2.49,10.48,10.48,0,0,0-1.45-1.9,4.4,4.4,0,0,0-1.51-1.06,1.86,1.86,0,0,0-1.5,0,1.89,1.89,0,0,0-1,1.08,4.54,4.54,0,0,0-.28,1.84,11,11,0,0,0,.39,2.35,19.67,19.67,0,0,0,.94,2.65,19,19,0,0,0,1.28,2.51,11.27,11.27,0,0,0,1.47,1.95,4.68,4.68,0,0,0,1.54,1.13A1.85,1.85,0,0,0,120.57,158.78Z"/><path class="cls-2" d="M134.92,151.58a4.73,4.73,0,0,1-2.27.86,5.74,5.74,0,0,1-2.47-.34,8.36,8.36,0,0,1-2.45-1.45,12.21,12.21,0,0,1-2.25-2.46,11.79,11.79,0,0,1-1.46-2.78,8.31,8.31,0,0,1-.53-2.76,5.87,5.87,0,0,1,.48-2.46,4.66,4.66,0,0,1,3.83-2.72,5.84,5.84,0,0,1,2.48.37,8.42,8.42,0,0,1,2.43,1.41,11.58,11.58,0,0,1,2.14,2.31,12.7,12.7,0,0,1,1.57,2.93,8.42,8.42,0,0,1,.55,2.8,5.56,5.56,0,0,1-.49,2.43A4.65,4.65,0,0,1,134.92,151.58Zm-.45-.64a1.85,1.85,0,0,0,.77-1.29,4.76,4.76,0,0,0-.16-1.9,11.23,11.23,0,0,0-.9-2.27,19.46,19.46,0,0,0-1.47-2.41,19.79,19.79,0,0,0-1.77-2.17,10.39,10.39,0,0,0-1.82-1.56,4.45,4.45,0,0,0-1.7-.72,1.91,1.91,0,0,0-1.46.31,2,2,0,0,0-.79,1.28,4.61,4.61,0,0,0,.12,1.85,10.14,10.14,0,0,0,.87,2.22,21.3,21.3,0,0,0,1.46,2.39,19.07,19.07,0,0,0,1.79,2.19,11,11,0,0,0,1.84,1.61,4.74,4.74,0,0,0,1.74.78A1.87,1.87,0,0,0,134.47,150.94Z"/><path class="cls-2" d="M143,144.74a7.61,7.61,0,0,0,1.28-2.32,9.42,9.42,0,0,0,.51-2.67,9.61,9.61,0,0,0-.28-2.72,8.3,8.3,0,0,0-1.06-2.48c-.07.3-.15.59-.23.87a5.93,5.93,0,0,1-.31.86,5.57,5.57,0,0,1-1.16,1.67,4,4,0,0,1-1.56,1,4.32,4.32,0,0,1-1.74.24,4.82,4.82,0,0,1-1.71-.45,5.14,5.14,0,0,1-1.5-1,5.26,5.26,0,0,1-1.63-3.81,5.66,5.66,0,0,1,.39-2.06,5.5,5.5,0,0,1,1.19-1.83,4.88,4.88,0,0,1,1.84-1.21,5.49,5.49,0,0,1,2.17-.34,6.29,6.29,0,0,1,2.24.52,6.74,6.74,0,0,1,2,1.36,9.83,9.83,0,0,1,1.65,2.13,9.7,9.7,0,0,1,1,2.45,10,10,0,0,1,.31,2.61,10.46,10.46,0,0,1-.37,2.65,10.8,10.8,0,0,1-1,2.53,10.57,10.57,0,0,1-1.7,2.28Zm-.05-10.94c-.2-.28-.43-.57-.7-.88s-.54-.6-.82-.88a7.15,7.15,0,0,0-1.6-1.19,6.09,6.09,0,0,0-1.65-.62,3.77,3.77,0,0,0-1.53,0,2.28,2.28,0,0,0-1.19.64,2.38,2.38,0,0,0-.63,1.1,2.66,2.66,0,0,0,0,1.19,4,4,0,0,0,.51,1.17,5.56,5.56,0,0,0,.84,1,8.76,8.76,0,0,0,1.5,1.2,4.81,4.81,0,0,0,1.48.64,2.76,2.76,0,0,0,1.4,0,2.68,2.68,0,0,0,1.25-.78,3.63,3.63,0,0,0,.43-.55,4.71,4.71,0,0,0,.35-.67,4.83,4.83,0,0,0,.24-.7A2.71,2.71,0,0,0,142.92,133.8Z"/></g><g id="ロゴ右文字"><path d="M226.47,66.36h8.28V88.18l25.9-21.82H266L241.46,87.07l31.18,28.5H262.1l-27.35-25v25h-8.28Z"/><path d="M298.72,65.25l23.16,50.32h-8.42L306,99.17H284.84l-7.75,16.4h-4.16l23.72-50.32ZM286.29,96h18.15L295.5,76.49Z"/><path d="M328.71,66.36h8.46l19.15,37.74h.41L375.5,66.36h8.32v49.21H375.5V75.23h-.26l-20.18,40.34h-1.71l-20.41-40h-.56v40h-3.67Z"/><path d="M397.17,66.36h8.28v49.21h-8.28Z"/><path d="M443.71,116.72a27.74,27.74,0,0,1-10.67-2,27,27,0,0,1-8.61-5.59,26.16,26.16,0,0,1-5.75-8.27,24.68,24.68,0,0,1-2.1-10.11,24.41,24.41,0,0,1,3.64-12.88,25.46,25.46,0,0,1,4.21-5.14,26.62,26.62,0,0,1,5.48-4,27.78,27.78,0,0,1,6.49-2.56,29.82,29.82,0,0,1,14.62,0,28.11,28.11,0,0,1,6.51,2.56,26.1,26.1,0,0,1,5.48,4,26.51,26.51,0,0,1,4.21,5.14,24.06,24.06,0,0,1,3.65,12.88,25,25,0,0,1-.94,6.88,25.4,25.4,0,0,1-2.71,6.22,26.94,26.94,0,0,1-4.21,5.26,26.62,26.62,0,0,1-5.48,4.09,27.83,27.83,0,0,1-6.51,2.63A28.27,28.27,0,0,1,443.71,116.72Zm0-2.45a15.51,15.51,0,0,0,7.48-1.76,16.06,16.06,0,0,0,5.47-4.92,22.88,22.88,0,0,0,3.36-7.46,37.2,37.2,0,0,0,1.13-9.42A36.23,36.23,0,0,0,460,81.39a21.86,21.86,0,0,0-3.36-7.29,15.65,15.65,0,0,0-5.47-4.75,17.55,17.55,0,0,0-15,0,15.45,15.45,0,0,0-5.46,4.75,21.81,21.81,0,0,0-3.32,7.29,36.7,36.7,0,0,0-1.11,9.32,37.68,37.68,0,0,0,1.11,9.42,22.83,22.83,0,0,0,3.32,7.46,15.84,15.84,0,0,0,5.46,4.92A15.62,15.62,0,0,0,443.71,114.27Z"/><path d="M505.42,91.15a25.87,25.87,0,0,0,1.56,9.26,20.27,20.27,0,0,0,4.29,6.94,18.37,18.37,0,0,0,6.44,4.34,21.24,21.24,0,0,0,8,1.5,12.91,12.91,0,0,0,5-1,19.23,19.23,0,0,0,4.47-2.61,23.1,23.1,0,0,0,3.69-3.64,22.74,22.74,0,0,0,2.67-4.1l3.49,2.22a30.78,30.78,0,0,1-3.6,4.77,23.86,23.86,0,0,1-11,6.85,26.55,26.55,0,0,1-7.67,1,29.12,29.12,0,0,1-11.11-2,26.27,26.27,0,0,1-8.55-5.53,24.5,24.5,0,0,1-5.52-8.15,25.94,25.94,0,0,1-1.05-16.58A25.12,25.12,0,0,1,503.33,73a25.77,25.77,0,0,1,5.49-4.12,28.18,28.18,0,0,1,6.7-2.68,30.71,30.71,0,0,1,7.75-.94,23.72,23.72,0,0,1,7.26,1.06,25.25,25.25,0,0,1,10.91,6.82,30.24,30.24,0,0,1,3.65,4.77l-3.6,2.38a24.09,24.09,0,0,0-6.9-8.74,14.64,14.64,0,0,0-8.79-2.77,20.35,20.35,0,0,0-8,1.56,19,19,0,0,0-6.48,4.46,20.72,20.72,0,0,0-4.34,7A26.08,26.08,0,0,0,505.42,91.15Z"/><path d="M580.2,115.57a7.05,7.05,0,0,1-2.51-2.1,5,5,0,0,1-1-3.1c-.89.67-1.76,1.36-2.61,2.08a19.85,19.85,0,0,1-2.79,2,15.56,15.56,0,0,1-3.34,1.43,14.69,14.69,0,0,1-4.25.56,10.74,10.74,0,0,1-4-.73,8.85,8.85,0,0,1-3-2,9,9,0,0,1-1.93-3,10.28,10.28,0,0,1-.68-3.75,9.91,9.91,0,0,1,1-4.41A11.82,11.82,0,0,1,557.62,99a19.74,19.74,0,0,1,3.91-2.75,38.89,38.89,0,0,1,4.75-2.15c1.68-.63,3.42-1.19,5.2-1.69s3.51-1,5.19-1.37V88.66a21.58,21.58,0,0,0-.37-4.37,7.64,7.64,0,0,0-1.15-2.88,4.3,4.3,0,0,0-2-1.56,8.06,8.06,0,0,0-2.88-.46,6.79,6.79,0,0,0-2.93.63A7.91,7.91,0,0,0,565,81.71a8.65,8.65,0,0,0-1.67,2.48,11.12,11.12,0,0,0-.87,3h-6.9a9.11,9.11,0,0,1,1.69-4.38,12.11,12.11,0,0,1,3.5-3.25,17.23,17.23,0,0,1,4.81-2,21.88,21.88,0,0,1,5.58-.71,22.68,22.68,0,0,1,6.24.73,10.56,10.56,0,0,1,4,2,7.14,7.14,0,0,1,2.17,3.17,12.4,12.4,0,0,1,.65,4.14v23.45a5,5,0,0,0,1,3.1,7.05,7.05,0,0,0,2.51,2.1Zm-3.53-22.12c-1.09.35-2.21.74-3.37,1.19a37.26,37.26,0,0,0-3.42,1.5c-1.11.56-2.18,1.16-3.19,1.8A17,17,0,0,0,564,100a9.51,9.51,0,0,0-1.82,2.34,5.21,5.21,0,0,0-.67,2.56,6.73,6.73,0,0,0,.52,2.65,7.66,7.66,0,0,0,1.37,2.19,6.46,6.46,0,0,0,2,1.49,5.34,5.34,0,0,0,2.3.53,8.66,8.66,0,0,0,2.41-.33,11.61,11.61,0,0,0,2.23-.91,19.75,19.75,0,0,0,2.15-1.32q1.08-.73,2.19-1.59Z"/><path d="M612.22,61a4,4,0,0,0-2.24.65,6.14,6.14,0,0,0-1.75,1.7,8.39,8.39,0,0,0-1.11,2.44,10.21,10.21,0,0,0-.39,2.82v8.94h10.13V80.8H606.73v34.77h-7.57V80.8h-7.9V77.57h7.9V73.19a15.29,15.29,0,0,1,1.11-5.84,15.14,15.14,0,0,1,3-4.75,14.29,14.29,0,0,1,4.49-3.21,12.88,12.88,0,0,1,5.51-1.19,14.3,14.3,0,0,1,3.88.52,14.08,14.08,0,0,1,3.47,1.46,12,12,0,0,1,2.84,2.34,11.6,11.6,0,0,1,2,3.1l-5.49,4c-.27-1-.59-2-1-3a12.36,12.36,0,0,0-1.41-2.76,6.81,6.81,0,0,0-2.15-2A6.16,6.16,0,0,0,612.22,61Z"/><path d="M639.94,116.39a18.37,18.37,0,0,1-7.25-1.45,19,19,0,0,1-5.92-3.94,18.48,18.48,0,0,1-4-5.84A17.62,17.62,0,0,1,621.31,98a25.81,25.81,0,0,1,1.34-8.45,19.93,19.93,0,0,1,3.79-6.69,17.34,17.34,0,0,1,5.88-4.42,18,18,0,0,1,7.66-1.6,17.36,17.36,0,0,1,6.83,1.32,16.89,16.89,0,0,1,5.36,3.53,15.82,15.82,0,0,1,3.49,5.1,15.16,15.16,0,0,1,1.24,6H628.59a24.7,24.7,0,0,0,1,7.09,18.11,18.11,0,0,0,2.77,5.64,13,13,0,0,0,4.23,3.71,11,11,0,0,0,5.38,1.33,14.11,14.11,0,0,0,4.71-.79,17,17,0,0,0,4.1-2.1,14.84,14.84,0,0,0,3.14-3,10.47,10.47,0,0,0,1.82-3.45l2.18,1a17.53,17.53,0,0,1-2.63,5.5,21.73,21.73,0,0,1-4.25,4.47,20.59,20.59,0,0,1-5.29,3A15.85,15.85,0,0,1,639.94,116.39Zm7.5-26.58a10.36,10.36,0,0,0-.76-4,9.85,9.85,0,0,0-5.21-5.35,9.47,9.47,0,0,0-3.83-.78,7.42,7.42,0,0,0-3.26.76,9.31,9.31,0,0,0-2.79,2.12,11.54,11.54,0,0,0-2,3.21,12,12,0,0,0-.94,4Z"/></g></svg>